<svg width="116" height="119" viewBox="0 0 116 119" fill="none" xmlns="http://www.w3.org/2000/svg">
<path d="M28.6965 17.8665L3.1666 107.661C2.28626 110.009 1.05378 114.88 3.1666 115.584C4.04694 116.465 6.86403 117.521 11.0897 114.704L55.9871 89.6144L78.4358 77.0695L100.885 64.5247C90.3204 49.5588 79.7563 38.2292 66.5512 30.1913C50.3529 20.3315 34.272 17.8665 28.6965 17.8665Z" fill="#DDBB85"/>
<path d="M66.5512 30.1913C79.7563 38.2292 90.3204 49.5588 100.885 64.5247C107.047 62.5051 117.787 56.3324 111.449 47.7982C102.645 33.4192 75.5307 4.13321 37.4999 2.02039C33.0982 1.72694 25.1751 4.48534 28.6965 17.8665C34.272 17.8665 50.3529 20.3315 66.5512 30.1913Z" fill="#DDBB85"/>
<path d="M28.6965 17.8665L3.1666 107.661C2.28626 110.009 1.05378 114.88 3.1666 115.584C4.04694 116.465 6.86403 117.521 11.0897 114.704L55.9871 89.6144L78.4358 77.0695L100.885 64.5247M28.6965 17.8665C34.272 17.8665 50.3529 20.3315 66.5512 30.1913C79.7563 38.2292 90.3204 49.5588 100.885 64.5247M28.6965 17.8665C25.1751 4.48534 33.0982 1.72694 37.4999 2.02039C75.5307 4.13321 102.645 33.4192 111.449 47.7982C117.787 56.3324 107.047 62.5051 100.885 64.5247" stroke="#CF3535" stroke-width="4"/>
<circle cx="69.1922" cy="60.1229" r="11.1838" stroke="#D57653" stroke-width="3"/>
<circle cx="42.782" cy="42.5161" r="9.42308" stroke="#D57653" stroke-width="3"/>
<circle cx="33.9786" cy="70.687" r="6.42308" stroke="#D57653" stroke-width="3"/>
<path d="M21.6535 90.6742C23.0786 90.6742 24.3069 91.089 25.1398 91.684C25.9753 92.2808 26.3165 92.9704 26.3166 93.5756C26.3166 94.1809 25.9756 94.8712 25.1398 95.4682C24.3069 96.0631 23.0786 96.4779 21.6535 96.4779C20.2286 96.4779 19.001 96.063 18.1681 95.4682C17.3323 94.8712 16.9914 94.1809 16.9914 93.5756C16.9915 92.9703 17.3325 92.2809 18.1681 91.684C19.001 91.0891 20.2285 90.6743 21.6535 90.6742Z" stroke="#D57653" stroke-width="3"/>
</svg>
