<svg width="200" height="78" viewBox="0 0 200 78" fill="none" xmlns="http://www.w3.org/2000/svg">
<path d="M19.1397 12.1866L2.74898 69.8368C2.18378 71.344 1.39251 74.4714 2.74898 74.9235C3.31418 75.4887 5.12281 76.167 7.83576 74.3583L36.6608 58.2502L51.0733 50.1962L65.4859 42.1421C58.7035 32.5337 51.9211 25.2599 43.4432 20.0994C33.0436 13.7692 22.7193 12.1866 19.1397 12.1866Z" fill="#DDBB85"/>
<path d="M43.4432 20.0994C51.9211 25.2599 58.7035 32.5337 65.4859 42.1421C69.4423 40.8455 76.3377 36.8825 72.2682 31.4033C66.6163 22.1718 49.2082 3.36956 24.7917 2.01309C21.9657 1.82469 16.8789 3.59564 19.1397 12.1866C22.7193 12.1866 33.0436 13.7692 43.4432 20.0994Z" fill="#DDBB85"/>
<path d="M19.1397 12.1866L2.74898 69.8368C2.18378 71.344 1.39251 74.4714 2.74898 74.9235C3.31418 75.4887 5.12281 76.167 7.83576 74.3583L36.6608 58.2502L51.0733 50.1962L65.4859 42.1421M19.1397 12.1866C22.7193 12.1866 33.0436 13.7692 43.4432 20.0994C51.9211 25.2599 58.7035 32.5337 65.4859 42.1421M19.1397 12.1866C16.8789 3.59564 21.9657 1.82469 24.7917 2.01309C49.2082 3.36956 66.6163 22.1718 72.2682 31.4033C76.3377 36.8825 69.4423 40.8455 65.4859 42.1421" stroke="#CF3535" stroke-width="4"/>
<circle cx="45.1388" cy="39.3161" r="7.71717" stroke="#D57653" stroke-width="3"/>
<circle cx="28.1829" cy="28.0122" r="6.58678" stroke="#D57653" stroke-width="3"/>
<circle cx="22.5309" cy="46.0985" r="3.58678" stroke="#D57653" stroke-width="3"/>
<mask id="path-6-inside-1_24_12" fill="white">
<ellipse cx="14.6181" cy="60.7936" rx="3.95638" ry="2.82599"/>
</mask>
<path d="M18.5745 60.7936H15.5745C15.5745 60.3537 15.8292 60.2384 15.672 60.3507C15.5205 60.4589 15.1575 60.6196 14.6181 60.6196V63.6196V66.6196C16.2638 66.6196 17.879 66.1477 19.1594 65.2331C20.4341 64.3226 21.5745 62.7943 21.5745 60.7936H18.5745ZM14.6181 63.6196V60.6196C14.0788 60.6196 13.7157 60.4589 13.5643 60.3507C13.407 60.2384 13.6617 60.3537 13.6617 60.7936H10.6617H7.66174C7.66174 62.7943 8.80215 64.3226 10.0768 65.2331C11.3573 66.1477 12.9724 66.6196 14.6181 66.6196V63.6196ZM10.6617 60.7936H13.6617C13.6617 61.2335 13.407 61.3489 13.5643 61.2365C13.7157 61.1283 14.0788 60.9676 14.6181 60.9676V57.9676V54.9676C12.9724 54.9676 11.3573 55.4395 10.0768 56.3541C8.80215 57.2646 7.66174 58.7929 7.66174 60.7936H10.6617ZM14.6181 57.9676V60.9676C15.1575 60.9676 15.5205 61.1283 15.672 61.2365C15.8292 61.3489 15.5745 61.2335 15.5745 60.7936H18.5745H21.5745C21.5745 58.7929 20.4341 57.2646 19.1594 56.3541C17.879 55.4395 16.2638 54.9676 14.6181 54.9676V57.9676Z" fill="#D57653" mask="url(#path-6-inside-1_24_12)"/>
<path d="M113.242 45.135C113.044 45.135 112.891 45.09 112.783 45C112.675 44.928 112.621 44.847 112.621 44.757C112.621 44.613 112.684 44.505 112.81 44.433C112.936 44.343 113.062 44.28 113.188 44.244C113.836 44.082 114.313 43.884 114.619 43.65C114.925 43.398 115.078 42.993 115.078 42.435V30.015C115.078 29.601 115.024 29.286 114.916 29.07C114.826 28.854 114.655 28.692 114.403 28.584C114.169 28.458 113.818 28.35 113.35 28.26C112.882 28.17 112.648 27.981 112.648 27.693C112.648 27.585 112.711 27.504 112.837 27.45C112.963 27.378 113.107 27.342 113.269 27.342C113.719 27.342 114.142 27.351 114.538 27.369C114.952 27.387 115.348 27.405 115.726 27.423C116.104 27.441 116.482 27.45 116.86 27.45C117.274 27.45 117.688 27.441 118.102 27.423C118.534 27.405 118.966 27.387 119.398 27.369C119.848 27.351 120.28 27.342 120.694 27.342C120.874 27.342 121.018 27.378 121.126 27.45C121.234 27.504 121.288 27.594 121.288 27.72C121.288 27.864 121.225 27.981 121.099 28.071C120.991 28.143 120.829 28.206 120.613 28.26C119.911 28.44 119.389 28.638 119.047 28.854C118.723 29.052 118.561 29.412 118.561 29.934V42.273C118.561 42.795 118.678 43.182 118.912 43.434C119.146 43.668 119.587 43.785 120.235 43.785H123.178C123.592 43.785 123.97 43.713 124.312 43.569C124.654 43.425 124.933 43.245 125.149 43.029C125.473 42.741 125.743 42.435 125.959 42.111C126.175 41.787 126.382 41.409 126.58 40.977C126.706 40.707 126.823 40.5 126.931 40.356C127.039 40.212 127.147 40.14 127.255 40.14C127.381 40.14 127.471 40.203 127.525 40.329C127.579 40.437 127.606 40.554 127.606 40.68C127.606 40.698 127.597 40.752 127.579 40.842C127.561 40.932 127.552 41.004 127.552 41.058C127.408 41.58 127.282 42.03 127.174 42.408C127.084 42.786 127.003 43.155 126.931 43.515C126.877 43.857 126.823 44.235 126.769 44.649C126.751 44.775 126.715 44.892 126.661 45C126.607 45.09 126.499 45.135 126.337 45.135C125.797 45.135 125.149 45.126 124.393 45.108C123.637 45.09 122.836 45.072 121.99 45.054C121.144 45.054 120.289 45.045 119.425 45.027C118.579 45.009 117.778 45 117.022 45C116.626 45 116.167 45.009 115.645 45.027C115.141 45.045 114.664 45.063 114.214 45.081C113.764 45.117 113.44 45.135 113.242 45.135ZM128.442 45.135C128.226 45.135 128.046 45.099 127.902 45.027C127.758 44.973 127.686 44.874 127.686 44.73C127.686 44.568 127.749 44.442 127.875 44.352C128.019 44.262 128.199 44.181 128.415 44.109C128.937 43.965 129.387 43.749 129.765 43.461C130.161 43.155 130.476 42.741 130.71 42.219C131.16 41.157 131.592 40.14 132.006 39.168C132.42 38.178 132.816 37.197 133.194 36.225C133.572 35.253 133.95 34.263 134.328 33.255C134.724 32.247 135.12 31.185 135.516 30.069C135.714 29.511 135.849 29.079 135.921 28.773C135.993 28.467 136.056 28.242 136.11 28.098C136.38 28.026 136.632 27.954 136.866 27.882C137.1 27.81 137.361 27.72 137.649 27.612C137.901 27.486 138.117 27.324 138.297 27.126C138.477 26.928 138.612 26.775 138.702 26.667C138.756 26.631 138.81 26.613 138.864 26.613C138.918 26.595 138.972 26.631 139.026 26.721C139.08 26.829 139.125 26.937 139.161 27.045C139.197 27.153 139.233 27.27 139.269 27.396C139.665 28.674 140.07 29.97 140.484 31.284C140.916 32.58 141.339 33.867 141.753 35.145C142.167 36.405 142.563 37.62 142.941 38.79C143.337 39.942 143.697 41.004 144.021 41.976C144.183 42.462 144.381 42.849 144.615 43.137C144.867 43.425 145.137 43.65 145.425 43.812C145.731 43.956 146.064 44.073 146.424 44.163C146.658 44.217 146.838 44.289 146.964 44.379C147.09 44.469 147.153 44.595 147.153 44.757C147.153 44.865 147.09 44.946 146.964 45C146.856 45.054 146.712 45.081 146.532 45.081C146.208 45.081 145.794 45.072 145.29 45.054C144.804 45.036 144.3 45.018 143.778 45C143.256 44.964 142.788 44.946 142.374 44.946C142.014 44.946 141.609 44.955 141.159 44.973C140.727 44.991 140.286 45.009 139.836 45.027C139.404 45.045 139.035 45.054 138.729 45.054C138.549 45.054 138.387 45.027 138.243 44.973C138.117 44.901 138.054 44.802 138.054 44.676C138.054 44.532 138.126 44.415 138.27 44.325C138.414 44.217 138.585 44.145 138.783 44.109C139.431 44.001 139.899 43.839 140.187 43.623C140.475 43.389 140.583 43.056 140.511 42.624C140.457 42.318 140.376 41.958 140.268 41.544C140.16 41.112 140.043 40.671 139.917 40.221C139.809 39.753 139.692 39.33 139.566 38.952C139.53 38.808 139.476 38.709 139.404 38.655C139.332 38.583 139.197 38.547 138.999 38.547H134.139C134.013 38.547 133.914 38.592 133.842 38.682C133.77 38.754 133.716 38.871 133.68 39.033C133.608 39.267 133.518 39.537 133.41 39.843C133.32 40.131 133.221 40.437 133.113 40.761C133.023 41.067 132.933 41.355 132.843 41.625C132.771 41.895 132.717 42.129 132.681 42.327C132.591 42.813 132.672 43.2 132.924 43.488C133.194 43.758 133.653 43.974 134.301 44.136C134.787 44.262 135.03 44.451 135.03 44.703C135.03 44.811 134.967 44.901 134.841 44.973C134.733 45.027 134.571 45.054 134.355 45.054C133.941 45.054 133.509 45.036 133.059 45C132.609 44.982 132.114 44.973 131.574 44.973C131.034 44.973 130.503 45 129.981 45.054C129.477 45.108 128.964 45.135 128.442 45.135ZM134.868 37.305H138.621C138.873 37.305 138.999 37.251 138.999 37.143C138.999 37.089 138.99 37.044 138.972 37.008C138.972 36.972 138.963 36.918 138.945 36.846L137.055 30.609C136.983 30.357 136.92 30.231 136.866 30.231C136.83 30.231 136.767 30.348 136.677 30.582L134.409 36.846C134.373 36.936 134.355 37.008 134.355 37.062C134.355 37.152 134.4 37.215 134.49 37.251C134.598 37.287 134.724 37.305 134.868 37.305Z" fill="#CF3535"/>
<path d="M61.073 70.087C60.9183 70.087 60.783 70.058 60.667 70C60.551 69.9227 60.493 69.8163 60.493 69.681C60.493 69.3717 60.696 69.1687 61.102 69.072C61.8367 68.9173 62.3393 68.724 62.61 68.492C62.9 68.2407 63.045 67.796 63.045 67.158V54.166C63.045 53.5087 62.929 53.035 62.697 52.745C62.465 52.4357 62.001 52.2037 61.305 52.049C61.0537 51.991 60.8797 51.9137 60.783 51.817C60.6863 51.701 60.638 51.5753 60.638 51.44C60.638 51.324 60.696 51.2273 60.812 51.15C60.928 51.0533 61.0827 51.005 61.276 51.005C61.7207 51.005 62.1653 51.0147 62.61 51.034C63.074 51.0533 63.5187 51.0823 63.944 51.121C64.3887 51.1403 64.8043 51.15 65.191 51.15C65.655 51.15 66.061 51.1307 66.409 51.092C66.7763 51.034 67.1727 50.9857 67.598 50.947C68.0427 50.889 68.5743 50.86 69.193 50.86C71.5517 50.86 73.4173 51.3627 74.79 52.368C76.182 53.354 76.878 54.717 76.878 56.457C76.878 57.675 76.617 58.7963 76.095 59.821C75.5923 60.8457 74.819 61.677 73.775 62.315C72.7503 62.9337 71.4453 63.243 69.86 63.243C69.3573 63.243 68.9707 63.1657 68.7 63.011C68.4487 62.8563 68.323 62.6727 68.323 62.46C68.323 62.3247 68.381 62.2183 68.497 62.141C68.6323 62.0443 68.7483 61.996 68.845 61.996C69.0577 61.996 69.2413 62.025 69.396 62.083C69.5507 62.1217 69.7633 62.141 70.034 62.141C70.846 62.141 71.455 61.6867 71.861 60.778C72.2863 59.8693 72.499 58.6707 72.499 57.182C72.499 55.4033 72.209 54.1177 71.629 53.325C71.049 52.5323 70.237 52.136 69.193 52.136C68.6517 52.136 68.236 52.2617 67.946 52.513C67.6753 52.745 67.54 53.1123 67.54 53.615L67.511 67.1C67.511 67.7187 67.6753 68.1633 68.004 68.434C68.3327 68.6853 68.903 68.898 69.715 69.072C69.9277 69.1107 70.0823 69.1783 70.179 69.275C70.295 69.3523 70.353 69.478 70.353 69.652C70.353 69.7873 70.3047 69.8937 70.208 69.971C70.1113 70.0483 69.976 70.087 69.802 70.087C69.3767 70.087 68.8837 70.0677 68.323 70.029C67.7817 70.0097 67.2403 69.9903 66.699 69.971C66.1577 69.9517 65.6937 69.942 65.307 69.942C64.901 69.942 64.4563 69.9517 63.973 69.971C63.4897 69.9903 62.987 70.0097 62.465 70.029C61.9623 70.0677 61.4983 70.087 61.073 70.087ZM78.6592 70.087C78.5046 70.087 78.3692 70.058 78.2532 70C78.1372 69.9227 78.0792 69.8163 78.0792 69.681C78.0792 69.3717 78.2822 69.1687 78.6882 69.072C79.4229 68.9173 79.9352 68.724 80.2252 68.492C80.5152 68.2407 80.6602 67.8057 80.6602 67.187V54.021C80.6602 53.4023 80.5346 52.9673 80.2832 52.716C80.0319 52.4453 79.5196 52.223 78.7462 52.049C78.3402 51.9523 78.1372 51.7493 78.1372 51.44C78.1372 51.3047 78.1952 51.1983 78.3112 51.121C78.4272 51.0437 78.5626 51.005 78.7172 51.005C79.1619 51.005 79.6259 51.0147 80.1092 51.034C80.6119 51.0533 81.0952 51.0823 81.5592 51.121C82.0426 51.1403 82.4872 51.15 82.8932 51.15C83.2799 51.15 83.7149 51.1403 84.1982 51.121C84.7009 51.1017 85.2036 51.0823 85.7062 51.063C86.2282 51.0437 86.7019 51.034 87.1272 51.034C87.3012 51.034 87.4366 51.0727 87.5332 51.15C87.6299 51.208 87.6782 51.3047 87.6782 51.44C87.6782 51.6333 87.6202 51.7687 87.5042 51.846C87.4076 51.9233 87.2529 51.991 87.0402 52.049C86.2669 52.2617 85.7546 52.5033 85.5032 52.774C85.2519 53.0253 85.1262 53.4507 85.1262 54.05V67.158C85.1262 67.7187 85.2616 68.1343 85.5322 68.405C85.8222 68.6563 86.3442 68.8787 87.0982 69.072C87.2916 69.13 87.4366 69.1977 87.5332 69.275C87.6492 69.3523 87.7072 69.478 87.7072 69.652C87.7072 69.7873 87.6589 69.8937 87.5622 69.971C87.4849 70.0483 87.3592 70.087 87.1852 70.087C86.7599 70.087 86.2862 70.0677 85.7642 70.029C85.2422 70.0097 84.7299 69.9903 84.2272 69.971C83.7246 69.9517 83.2799 69.942 82.8932 69.942C82.4872 69.942 82.0426 69.9517 81.5592 69.971C81.0759 69.9903 80.5829 70.0097 80.0802 70.029C79.5776 70.0677 79.1039 70.087 78.6592 70.087ZM103.288 70.116C103.075 70.116 102.708 70.1063 102.186 70.087C101.664 70.087 101.045 70.0773 100.33 70.058C99.6337 70.058 98.87 70.0483 98.0387 70.029C97.2267 70.0097 96.434 70 95.6607 70C94.9647 70.0193 94.259 70.029 93.5437 70.029C92.8477 70.0483 92.1517 70.0677 91.4557 70.087L89.2227 70.145C89.0487 70.145 88.923 70.0193 88.8457 69.768C88.7877 69.5167 88.778 69.362 88.8167 69.304C88.9714 69.0333 89.1454 68.7433 89.3387 68.434C89.532 68.1247 89.7254 67.8057 89.9187 67.477C90.1314 67.1483 90.3247 66.839 90.4987 66.549C91.1947 65.4277 91.8907 64.316 92.5867 63.214C93.2827 62.0927 93.9787 60.9907 94.6747 59.908C95.3707 58.806 96.0667 57.704 96.7627 56.602C97.4587 55.5 98.1547 54.3883 98.8507 53.267C98.8894 53.1703 98.9184 53.0833 98.9377 53.006C98.9764 52.9287 98.9957 52.8513 98.9957 52.774C98.9957 52.6967 98.9667 52.629 98.9087 52.571C98.8507 52.513 98.725 52.484 98.5317 52.484C98.203 52.484 97.8454 52.484 97.4587 52.484C97.072 52.484 96.6854 52.484 96.2987 52.484C95.912 52.484 95.5544 52.484 95.2257 52.484C94.897 52.484 94.5684 52.484 94.2397 52.484C93.447 52.484 92.7317 52.7063 92.0937 53.151C91.475 53.5763 90.9434 54.1757 90.4987 54.949C90.3827 55.1617 90.228 55.384 90.0347 55.616C89.8414 55.8287 89.5997 55.935 89.3097 55.935C89.155 55.935 89.0487 55.8867 88.9907 55.79C88.9327 55.6933 88.9037 55.5773 88.9037 55.442C88.9037 55.326 88.923 55.2003 88.9617 55.065C89.0004 54.9103 89.0487 54.775 89.1067 54.659C89.3194 54.195 89.474 53.7793 89.5707 53.412C89.6674 53.0447 89.7447 52.6677 89.8027 52.281C89.8607 51.875 89.909 51.411 89.9477 50.889C89.9864 50.599 90.0444 50.396 90.1217 50.28C90.2184 50.164 90.373 50.106 90.5857 50.106C90.7404 50.106 90.953 50.2123 91.2237 50.425C91.5137 50.6377 91.794 50.7923 92.0647 50.889C92.4127 51.0243 92.78 51.1113 93.1667 51.15C93.5727 51.1693 94.0367 51.179 94.5587 51.179C95.1 51.179 95.6607 51.179 96.2407 51.179C96.8207 51.179 97.4007 51.179 97.9807 51.179C98.3287 51.179 98.7927 51.1693 99.3727 51.15C99.9527 51.1307 100.571 51.121 101.229 51.121C101.905 51.1017 102.543 51.0823 103.143 51.063C103.742 51.0437 104.216 51.034 104.564 51.034C104.699 51.034 104.825 51.1307 104.941 51.324C105.057 51.5173 105.086 51.6527 105.028 51.73L103.056 54.862C102.398 55.8867 101.741 56.9403 101.084 58.023C100.446 59.0863 99.8077 60.1593 99.1697 61.242C98.5317 62.3053 97.8937 63.359 97.2557 64.403C96.637 65.447 96.0184 66.4523 95.3997 67.419C95.2064 67.7283 95.1097 67.9797 95.1097 68.173C95.1097 68.289 95.158 68.376 95.2547 68.434C95.3514 68.492 95.5157 68.5307 95.7477 68.55C95.999 68.5693 96.347 68.5887 96.7917 68.608C97.2557 68.6273 97.6327 68.637 97.9227 68.637C98.7347 68.637 99.4404 68.608 100.04 68.55C100.658 68.4727 101.219 68.3373 101.722 68.144C102.688 67.7767 103.471 66.839 104.071 65.331C104.148 65.1957 104.225 65.099 104.303 65.041C104.399 64.983 104.515 64.954 104.651 64.954C104.902 64.954 105.028 65.0893 105.028 65.36C105.028 65.592 104.989 65.882 104.912 66.23C104.854 66.5587 104.776 66.926 104.68 67.332C104.583 67.7187 104.477 68.1053 104.361 68.492C104.264 68.8787 104.167 69.2363 104.071 69.565C104.013 69.739 103.916 69.8743 103.781 69.971C103.645 70.0677 103.481 70.116 103.288 70.116ZM120.563 70.116C120.35 70.116 119.983 70.1063 119.461 70.087C118.939 70.087 118.32 70.0773 117.605 70.058C116.909 70.058 116.145 70.0483 115.314 70.029C114.502 70.0097 113.709 70 112.936 70C112.24 70.0193 111.534 70.029 110.819 70.029C110.123 70.0483 109.427 70.0677 108.731 70.087L106.498 70.145C106.324 70.145 106.198 70.0193 106.121 69.768C106.063 69.5167 106.053 69.362 106.092 69.304C106.247 69.0333 106.421 68.7433 106.614 68.434C106.807 68.1247 107.001 67.8057 107.194 67.477C107.407 67.1483 107.6 66.839 107.774 66.549C108.47 65.4277 109.166 64.316 109.862 63.214C110.558 62.0927 111.254 60.9907 111.95 59.908C112.646 58.806 113.342 57.704 114.038 56.602C114.734 55.5 115.43 54.3883 116.126 53.267C116.165 53.1703 116.194 53.0833 116.213 53.006C116.252 52.9287 116.271 52.8513 116.271 52.774C116.271 52.6967 116.242 52.629 116.184 52.571C116.126 52.513 116 52.484 115.807 52.484C115.478 52.484 115.121 52.484 114.734 52.484C114.347 52.484 113.961 52.484 113.574 52.484C113.187 52.484 112.83 52.484 112.501 52.484C112.172 52.484 111.844 52.484 111.515 52.484C110.722 52.484 110.007 52.7063 109.369 53.151C108.75 53.5763 108.219 54.1757 107.774 54.949C107.658 55.1617 107.503 55.384 107.31 55.616C107.117 55.8287 106.875 55.935 106.585 55.935C106.43 55.935 106.324 55.8867 106.266 55.79C106.208 55.6933 106.179 55.5773 106.179 55.442C106.179 55.326 106.198 55.2003 106.237 55.065C106.276 54.9103 106.324 54.775 106.382 54.659C106.595 54.195 106.749 53.7793 106.846 53.412C106.943 53.0447 107.02 52.6677 107.078 52.281C107.136 51.875 107.184 51.411 107.223 50.889C107.262 50.599 107.32 50.396 107.397 50.28C107.494 50.164 107.648 50.106 107.861 50.106C108.016 50.106 108.228 50.2123 108.499 50.425C108.789 50.6377 109.069 50.7923 109.34 50.889C109.688 51.0243 110.055 51.1113 110.442 51.15C110.848 51.1693 111.312 51.179 111.834 51.179C112.375 51.179 112.936 51.179 113.516 51.179C114.096 51.179 114.676 51.179 115.256 51.179C115.604 51.179 116.068 51.1693 116.648 51.15C117.228 51.1307 117.847 51.121 118.504 51.121C119.181 51.1017 119.819 51.0823 120.418 51.063C121.017 51.0437 121.491 51.034 121.839 51.034C121.974 51.034 122.1 51.1307 122.216 51.324C122.332 51.5173 122.361 51.6527 122.303 51.73L120.331 54.862C119.674 55.8867 119.016 56.9403 118.359 58.023C117.721 59.0863 117.083 60.1593 116.445 61.242C115.807 62.3053 115.169 63.359 114.531 64.403C113.912 65.447 113.294 66.4523 112.675 67.419C112.482 67.7283 112.385 67.9797 112.385 68.173C112.385 68.289 112.433 68.376 112.53 68.434C112.627 68.492 112.791 68.5307 113.023 68.55C113.274 68.5693 113.622 68.5887 114.067 68.608C114.531 68.6273 114.908 68.637 115.198 68.637C116.01 68.637 116.716 68.608 117.315 68.55C117.934 68.4727 118.494 68.3373 118.997 68.144C119.964 67.7767 120.747 66.839 121.346 65.331C121.423 65.1957 121.501 65.099 121.578 65.041C121.675 64.983 121.791 64.954 121.926 64.954C122.177 64.954 122.303 65.0893 122.303 65.36C122.303 65.592 122.264 65.882 122.187 66.23C122.129 66.5587 122.052 66.926 121.955 67.332C121.858 67.7187 121.752 68.1053 121.636 68.492C121.539 68.8787 121.443 69.2363 121.346 69.565C121.288 69.739 121.191 69.8743 121.056 69.971C120.921 70.0677 120.756 70.116 120.563 70.116ZM123.367 70.145C123.155 70.145 122.971 70.1063 122.816 70.029C122.681 69.971 122.613 69.855 122.613 69.681C122.613 69.4877 122.671 69.3523 122.787 69.275C122.923 69.1783 123.097 69.101 123.309 69.043C123.87 68.8883 124.353 68.6467 124.759 68.318C125.185 67.9893 125.504 67.5833 125.716 67.1C126.2 66.0173 126.654 64.954 127.079 63.91C127.505 62.8467 127.92 61.8027 128.326 60.778C128.732 59.734 129.138 58.6803 129.544 57.617C129.95 56.5343 130.356 55.442 130.762 54.34C131.052 53.5473 131.236 52.977 131.313 52.629C131.391 52.2617 131.449 52.049 131.487 51.991C131.835 51.8943 132.164 51.8073 132.473 51.73C132.783 51.6527 133.111 51.5463 133.459 51.411C133.807 51.2757 134.097 51.1017 134.329 50.889C134.581 50.6763 134.764 50.512 134.88 50.396C134.958 50.338 135.035 50.309 135.112 50.309C135.19 50.2897 135.267 50.3477 135.344 50.483C135.402 50.599 135.451 50.7247 135.489 50.86C135.547 50.976 135.596 51.1113 135.634 51.266C136.04 52.5613 136.456 53.8857 136.881 55.239C137.307 56.573 137.732 57.907 138.157 59.241C138.602 60.575 139.037 61.8993 139.462 63.214C139.888 64.5093 140.303 65.7757 140.709 67.013C140.825 67.3997 140.999 67.7283 141.231 67.999C141.483 68.2697 141.763 68.4823 142.072 68.637C142.382 68.7917 142.73 68.927 143.116 69.043C143.329 69.101 143.493 69.1783 143.609 69.275C143.745 69.3523 143.812 69.478 143.812 69.652C143.812 69.7873 143.754 69.8937 143.638 69.971C143.522 70.0483 143.387 70.087 143.232 70.087C142.846 70.087 142.362 70.0677 141.782 70.029C141.222 70.0097 140.651 69.9903 140.071 69.971C139.491 69.9517 138.979 69.942 138.534 69.942C138.167 69.942 137.713 69.9517 137.171 69.971C136.649 69.9903 136.118 70.0097 135.576 70.029C135.035 70.0483 134.571 70.058 134.184 70.058C134.01 70.058 133.856 70.029 133.72 69.971C133.604 69.8937 133.546 69.7873 133.546 69.652C133.546 69.478 133.614 69.3427 133.749 69.246C133.885 69.1493 134.049 69.0817 134.242 69.043C134.958 68.8883 135.48 68.6853 135.808 68.434C136.137 68.1827 136.243 67.8057 136.127 67.303C136.05 66.9357 135.953 66.549 135.837 66.143C135.721 65.737 135.605 65.331 135.489 64.925C135.393 64.4997 135.286 64.0937 135.17 63.707C135.132 63.5523 135.083 63.4363 135.025 63.359C134.967 63.2817 134.851 63.243 134.677 63.243H129.544C129.409 63.243 129.303 63.2817 129.225 63.359C129.148 63.4363 129.09 63.562 129.051 63.736C128.974 64.0067 128.887 64.2773 128.79 64.548C128.694 64.8187 128.597 65.0893 128.5 65.36C128.423 65.6307 128.346 65.9013 128.268 66.172C128.191 66.4427 128.114 66.7037 128.036 66.955C127.901 67.535 127.959 67.9797 128.21 68.289C128.462 68.5983 129.003 68.8497 129.834 69.043C130.298 69.1397 130.53 69.3427 130.53 69.652C130.53 69.7873 130.472 69.8937 130.356 69.971C130.26 70.029 130.095 70.058 129.863 70.058C129.303 70.058 128.781 70.0387 128.297 70C127.814 69.9807 127.282 69.971 126.702 69.971C126.122 69.971 125.571 70 125.049 70.058C124.527 70.116 123.967 70.145 123.367 70.145ZM130.356 61.677H134.126C134.416 61.677 134.561 61.6093 134.561 61.474C134.561 61.416 134.552 61.3677 134.532 61.329C134.532 61.2903 134.523 61.242 134.503 61.184L132.56 54.63C132.502 54.4173 132.444 54.311 132.386 54.311C132.348 54.311 132.28 54.4173 132.183 54.63L129.892 61.184C129.854 61.2613 129.834 61.3387 129.834 61.416C129.834 61.5127 129.883 61.5803 129.979 61.619C130.095 61.6577 130.221 61.677 130.356 61.677ZM161.938 70.609C160.952 70.609 160.121 70.4833 159.444 70.232C158.768 70 158.188 69.6907 157.704 69.304C157.24 68.898 156.825 68.4437 156.457 67.941C156.032 67.3803 155.616 66.8197 155.21 66.259C154.824 65.6983 154.437 65.0893 154.05 64.432C153.664 63.7747 153.258 63.0207 152.832 62.17C152.639 61.7447 152.378 61.445 152.049 61.271C151.875 61.155 151.701 61.0777 151.527 61.039C151.353 61.0003 151.199 60.981 151.063 60.981C150.967 60.981 150.889 61.039 150.831 61.155C150.773 61.2517 150.744 61.387 150.744 61.561V67.1C150.744 67.6993 150.909 68.1343 151.237 68.405C151.566 68.6757 152.136 68.898 152.948 69.072C153.161 69.1107 153.316 69.1783 153.412 69.275C153.528 69.3523 153.586 69.478 153.586 69.652C153.586 69.7873 153.538 69.8937 153.441 69.971C153.345 70.0483 153.209 70.087 153.035 70.087C152.61 70.087 152.117 70.0677 151.556 70.029C151.015 70.0097 150.474 69.9903 149.932 69.971C149.391 69.9517 148.927 69.942 148.54 69.942C148.134 69.942 147.69 69.9517 147.206 69.971C146.723 69.9903 146.22 70.0097 145.698 70.029C145.196 70.0677 144.732 70.087 144.306 70.087C144.152 70.087 144.016 70.058 143.9 70C143.784 69.9227 143.726 69.8163 143.726 69.681C143.726 69.3717 143.929 69.1687 144.335 69.072C145.07 68.9173 145.573 68.724 145.843 68.492C146.133 68.2407 146.278 67.796 146.278 67.158V54.137C146.278 53.673 146.23 53.3057 146.133 53.035C146.056 52.7643 145.892 52.5613 145.64 52.426C145.389 52.2713 145.022 52.1457 144.538 52.049C144.287 51.991 144.113 51.9137 144.016 51.817C143.92 51.701 143.871 51.5753 143.871 51.44C143.871 51.324 143.929 51.2273 144.045 51.15C144.161 51.0533 144.316 51.005 144.509 51.005C145.128 51.005 145.631 51.0243 146.017 51.063C146.423 51.1017 146.8 51.1403 147.148 51.179C147.516 51.1983 147.941 51.208 148.424 51.208C148.869 51.208 149.256 51.1887 149.584 51.15C149.932 51.092 150.319 51.0437 150.744 51.005C151.189 50.9663 151.75 50.947 152.426 50.947C154.688 50.947 156.428 51.3337 157.646 52.107C158.864 52.8803 159.473 54.05 159.473 55.616C159.473 56.486 159.28 57.2207 158.893 57.82C158.526 58.4 158.052 58.8833 157.472 59.27C156.912 59.6373 156.341 59.9177 155.761 60.111C155.684 60.1303 155.645 60.1787 155.645 60.256C155.665 60.314 155.694 60.3817 155.732 60.459C156.312 61.3097 156.873 62.141 157.414 62.953C157.975 63.7457 158.545 64.49 159.125 65.186C159.705 65.8627 160.305 66.491 160.923 67.071C161.581 67.6897 162.248 68.057 162.924 68.173C163.62 68.2697 164.307 68.318 164.983 68.318C165.273 68.318 165.418 68.492 165.418 68.84C165.418 69.2653 165.264 69.6133 164.954 69.884C164.664 70.1353 164.258 70.319 163.736 70.435C163.214 70.551 162.615 70.609 161.938 70.609ZM151.846 60.053C152.581 60.053 153.19 59.8887 153.673 59.56C154.157 59.2313 154.524 58.7867 154.775 58.226C155.027 57.646 155.152 56.9887 155.152 56.254C155.152 55.3647 155.036 54.6203 154.804 54.021C154.572 53.4217 154.224 52.977 153.76 52.687C153.296 52.3777 152.697 52.223 151.962 52.223C151.537 52.223 151.228 52.397 151.034 52.745C150.86 53.0737 150.773 53.789 150.773 54.891C150.754 55.3357 150.744 55.8963 150.744 56.573C150.744 57.2497 150.744 58.052 150.744 58.98C150.744 59.3667 150.841 59.647 151.034 59.821C151.247 59.9757 151.518 60.053 151.846 60.053ZM166.311 70.087C166.156 70.087 166.021 70.058 165.905 70C165.789 69.9227 165.731 69.8163 165.731 69.681C165.731 69.3717 165.934 69.1687 166.34 69.072C167.074 68.9173 167.587 68.724 167.877 68.492C168.167 68.2407 168.312 67.8057 168.312 67.187V54.021C168.312 53.4023 168.186 52.9673 167.935 52.716C167.683 52.4453 167.171 52.223 166.398 52.049C165.992 51.9523 165.789 51.7493 165.789 51.44C165.789 51.3047 165.847 51.1983 165.963 51.121C166.079 51.0437 166.214 51.005 166.369 51.005C166.813 51.005 167.277 51.0147 167.761 51.034C168.263 51.0533 168.747 51.0823 169.211 51.121C169.694 51.1403 170.139 51.15 170.545 51.15C170.931 51.15 171.366 51.1403 171.85 51.121C172.352 51.1017 172.855 51.0823 173.358 51.063C173.88 51.0437 174.353 51.034 174.779 51.034C174.953 51.034 175.088 51.0727 175.185 51.15C175.281 51.208 175.33 51.3047 175.33 51.44C175.33 51.6333 175.272 51.7687 175.156 51.846C175.059 51.9233 174.904 51.991 174.692 52.049C173.918 52.2617 173.406 52.5033 173.155 52.774C172.903 53.0253 172.778 53.4507 172.778 54.05V67.158C172.778 67.7187 172.913 68.1343 173.184 68.405C173.474 68.6563 173.996 68.8787 174.75 69.072C174.943 69.13 175.088 69.1977 175.185 69.275C175.301 69.3523 175.359 69.478 175.359 69.652C175.359 69.7873 175.31 69.8937 175.214 69.971C175.136 70.0483 175.011 70.087 174.837 70.087C174.411 70.087 173.938 70.0677 173.416 70.029C172.894 70.0097 172.381 69.9903 171.879 69.971C171.376 69.9517 170.931 69.942 170.545 69.942C170.139 69.942 169.694 69.9517 169.211 69.971C168.727 69.9903 168.234 70.0097 167.732 70.029C167.229 70.0677 166.755 70.087 166.311 70.087ZM176.468 70.145C176.255 70.145 176.072 70.1063 175.917 70.029C175.782 69.971 175.714 69.855 175.714 69.681C175.714 69.4877 175.772 69.3523 175.888 69.275C176.023 69.1783 176.197 69.101 176.41 69.043C176.971 68.8883 177.454 68.6467 177.86 68.318C178.285 67.9893 178.604 67.5833 178.817 67.1C179.3 66.0173 179.755 64.954 180.18 63.91C180.605 62.8467 181.021 61.8027 181.427 60.778C181.833 59.734 182.239 58.6803 182.645 57.617C183.051 56.5343 183.457 55.442 183.863 54.34C184.153 53.5473 184.337 52.977 184.414 52.629C184.491 52.2617 184.549 52.049 184.588 51.991C184.936 51.8943 185.265 51.8073 185.574 51.73C185.883 51.6527 186.212 51.5463 186.56 51.411C186.908 51.2757 187.198 51.1017 187.43 50.889C187.681 50.6763 187.865 50.512 187.981 50.396C188.058 50.338 188.136 50.309 188.213 50.309C188.29 50.2897 188.368 50.3477 188.445 50.483C188.503 50.599 188.551 50.7247 188.59 50.86C188.648 50.976 188.696 51.1113 188.735 51.266C189.141 52.5613 189.557 53.8857 189.982 55.239C190.407 56.573 190.833 57.907 191.258 59.241C191.703 60.575 192.138 61.8993 192.563 63.214C192.988 64.5093 193.404 65.7757 193.81 67.013C193.926 67.3997 194.1 67.7283 194.332 67.999C194.583 68.2697 194.864 68.4823 195.173 68.637C195.482 68.7917 195.83 68.927 196.217 69.043C196.43 69.101 196.594 69.1783 196.71 69.275C196.845 69.3523 196.913 69.478 196.913 69.652C196.913 69.7873 196.855 69.8937 196.739 69.971C196.623 70.0483 196.488 70.087 196.333 70.087C195.946 70.087 195.463 70.0677 194.883 70.029C194.322 70.0097 193.752 69.9903 193.172 69.971C192.592 69.9517 192.08 69.942 191.635 69.942C191.268 69.942 190.813 69.9517 190.272 69.971C189.75 69.9903 189.218 70.0097 188.677 70.029C188.136 70.0483 187.672 70.058 187.285 70.058C187.111 70.058 186.956 70.029 186.821 69.971C186.705 69.8937 186.647 69.7873 186.647 69.652C186.647 69.478 186.715 69.3427 186.85 69.246C186.985 69.1493 187.15 69.0817 187.343 69.043C188.058 68.8883 188.58 68.6853 188.909 68.434C189.238 68.1827 189.344 67.8057 189.228 67.303C189.151 66.9357 189.054 66.549 188.938 66.143C188.822 65.737 188.706 65.331 188.59 64.925C188.493 64.4997 188.387 64.0937 188.271 63.707C188.232 63.5523 188.184 63.4363 188.126 63.359C188.068 63.2817 187.952 63.243 187.778 63.243H182.645C182.51 63.243 182.403 63.2817 182.326 63.359C182.249 63.4363 182.191 63.562 182.152 63.736C182.075 64.0067 181.988 64.2773 181.891 64.548C181.794 64.8187 181.698 65.0893 181.601 65.36C181.524 65.6307 181.446 65.9013 181.369 66.172C181.292 66.4427 181.214 66.7037 181.137 66.955C181.002 67.535 181.06 67.9797 181.311 68.289C181.562 68.5983 182.104 68.8497 182.935 69.043C183.399 69.1397 183.631 69.3427 183.631 69.652C183.631 69.7873 183.573 69.8937 183.457 69.971C183.36 70.029 183.196 70.058 182.964 70.058C182.403 70.058 181.881 70.0387 181.398 70C180.915 69.9807 180.383 69.971 179.803 69.971C179.223 69.971 178.672 70 178.15 70.058C177.628 70.116 177.067 70.145 176.468 70.145ZM183.457 61.677H187.227C187.517 61.677 187.662 61.6093 187.662 61.474C187.662 61.416 187.652 61.3677 187.633 61.329C187.633 61.2903 187.623 61.242 187.604 61.184L185.661 54.63C185.603 54.4173 185.545 54.311 185.487 54.311C185.448 54.311 185.381 54.4173 185.284 54.63L182.993 61.184C182.954 61.2613 182.935 61.3387 182.935 61.416C182.935 61.5127 182.983 61.5803 183.08 61.619C183.196 61.6577 183.322 61.677 183.457 61.677Z" fill="#CF3535"/>
</svg>
