<svg width="140" height="159" viewBox="0 0 140 159" fill="none" xmlns="http://www.w3.org/2000/svg">
<path d="M42.6965 17.8665L17.1666 107.661C16.2863 110.009 15.0538 114.88 17.1666 115.584C18.0469 116.465 20.864 117.521 25.0897 114.704L69.9871 89.6144L92.4358 77.0695L114.885 64.5247C104.32 49.5588 93.7563 38.2292 80.5512 30.1913C64.3529 20.3315 48.272 17.8665 42.6965 17.8665Z" fill="#DDBB85"/>
<path d="M80.5512 30.1913C93.7563 38.2292 104.32 49.5588 114.885 64.5247C121.047 62.5051 131.787 56.3324 125.449 47.7982C116.645 33.4192 89.5307 4.13321 51.4999 2.02039C47.0982 1.72694 39.1751 4.48534 42.6965 17.8665C48.272 17.8665 64.3529 20.3315 80.5512 30.1913Z" fill="#DDBB85"/>
<path d="M42.6965 17.8665L17.1666 107.661C16.2863 110.009 15.0538 114.88 17.1666 115.584C18.0469 116.465 20.864 117.521 25.0897 114.704L69.9871 89.6144L92.4358 77.0695L114.885 64.5247M42.6965 17.8665C48.272 17.8665 64.3529 20.3315 80.5512 30.1913C93.7563 38.2292 104.32 49.5588 114.885 64.5247M42.6965 17.8665C39.1751 4.48534 47.0982 1.72694 51.4999 2.02039C89.5307 4.13321 116.645 33.4192 125.449 47.7982C131.787 56.3324 121.047 62.5051 114.885 64.5247" stroke="#CF3535" stroke-width="4"/>
<circle cx="83.1922" cy="60.1229" r="11.1838" stroke="#D57653" stroke-width="3"/>
<circle cx="56.782" cy="42.5161" r="9.42308" stroke="#D57653" stroke-width="3"/>
<circle cx="47.9786" cy="70.687" r="6.42308" stroke="#D57653" stroke-width="3"/>
<path d="M35.6535 90.6742C37.0786 90.6742 38.3069 91.089 39.1398 91.684C39.9753 92.2808 40.3165 92.9704 40.3166 93.5756C40.3166 94.1809 39.9756 94.8712 39.1398 95.4682C38.3069 96.0631 37.0786 96.4779 35.6535 96.4779C34.2286 96.4779 33.001 96.063 32.1681 95.4682C31.3323 94.8712 30.9914 94.1809 30.9914 93.5756C30.9915 92.9703 31.3325 92.2809 32.1681 91.684C33.001 91.0891 34.2285 90.6743 35.6535 90.6742Z" stroke="#D57653" stroke-width="3"/>
<path d="M53.242 133.135C53.044 133.135 52.891 133.09 52.783 133C52.675 132.928 52.621 132.847 52.621 132.757C52.621 132.613 52.684 132.505 52.81 132.433C52.936 132.343 53.062 132.28 53.188 132.244C53.836 132.082 54.313 131.884 54.619 131.65C54.925 131.398 55.078 130.993 55.078 130.435V118.015C55.078 117.601 55.024 117.286 54.916 117.07C54.826 116.854 54.655 116.692 54.403 116.584C54.169 116.458 53.818 116.35 53.35 116.26C52.882 116.17 52.648 115.981 52.648 115.693C52.648 115.585 52.711 115.504 52.837 115.45C52.963 115.378 53.107 115.342 53.269 115.342C53.719 115.342 54.142 115.351 54.538 115.369C54.952 115.387 55.348 115.405 55.726 115.423C56.104 115.441 56.482 115.45 56.86 115.45C57.274 115.45 57.688 115.441 58.102 115.423C58.534 115.405 58.966 115.387 59.398 115.369C59.848 115.351 60.28 115.342 60.694 115.342C60.874 115.342 61.018 115.378 61.126 115.45C61.234 115.504 61.288 115.594 61.288 115.72C61.288 115.864 61.225 115.981 61.099 116.071C60.991 116.143 60.829 116.206 60.613 116.26C59.911 116.44 59.389 116.638 59.047 116.854C58.723 117.052 58.561 117.412 58.561 117.934V130.273C58.561 130.795 58.678 131.182 58.912 131.434C59.146 131.668 59.587 131.785 60.235 131.785H63.178C63.592 131.785 63.97 131.713 64.312 131.569C64.654 131.425 64.933 131.245 65.149 131.029C65.473 130.741 65.743 130.435 65.959 130.111C66.175 129.787 66.382 129.409 66.58 128.977C66.706 128.707 66.823 128.5 66.931 128.356C67.039 128.212 67.147 128.14 67.255 128.14C67.381 128.14 67.471 128.203 67.525 128.329C67.579 128.437 67.606 128.554 67.606 128.68C67.606 128.698 67.597 128.752 67.579 128.842C67.561 128.932 67.552 129.004 67.552 129.058C67.408 129.58 67.282 130.03 67.174 130.408C67.084 130.786 67.003 131.155 66.931 131.515C66.877 131.857 66.823 132.235 66.769 132.649C66.751 132.775 66.715 132.892 66.661 133C66.607 133.09 66.499 133.135 66.337 133.135C65.797 133.135 65.149 133.126 64.393 133.108C63.637 133.09 62.836 133.072 61.99 133.054C61.144 133.054 60.289 133.045 59.425 133.027C58.579 133.009 57.778 133 57.022 133C56.626 133 56.167 133.009 55.645 133.027C55.141 133.045 54.664 133.063 54.214 133.081C53.764 133.117 53.44 133.135 53.242 133.135ZM68.4419 133.135C68.2259 133.135 68.0459 133.099 67.9019 133.027C67.7579 132.973 67.6859 132.874 67.6859 132.73C67.6859 132.568 67.7489 132.442 67.8749 132.352C68.0189 132.262 68.1989 132.181 68.4149 132.109C68.9369 131.965 69.3869 131.749 69.7649 131.461C70.1609 131.155 70.4759 130.741 70.7099 130.219C71.1599 129.157 71.5919 128.14 72.0059 127.168C72.4199 126.178 72.8159 125.197 73.1939 124.225C73.5719 123.253 73.9499 122.263 74.3279 121.255C74.7239 120.247 75.1199 119.185 75.5159 118.069C75.7139 117.511 75.8489 117.079 75.9209 116.773C75.9929 116.467 76.0559 116.242 76.1099 116.098C76.3799 116.026 76.6319 115.954 76.8659 115.882C77.0999 115.81 77.3609 115.72 77.6489 115.612C77.9009 115.486 78.1169 115.324 78.2969 115.126C78.4769 114.928 78.6119 114.775 78.7019 114.667C78.7559 114.631 78.8099 114.613 78.8639 114.613C78.9179 114.595 78.9719 114.631 79.0259 114.721C79.0799 114.829 79.1249 114.937 79.1609 115.045C79.1969 115.153 79.2329 115.27 79.2689 115.396C79.6649 116.674 80.0699 117.97 80.4839 119.284C80.9159 120.58 81.3389 121.867 81.7529 123.145C82.1669 124.405 82.5629 125.62 82.9409 126.79C83.3369 127.942 83.6969 129.004 84.0209 129.976C84.1829 130.462 84.3809 130.849 84.6149 131.137C84.8669 131.425 85.1369 131.65 85.4249 131.812C85.7309 131.956 86.0639 132.073 86.4239 132.163C86.6579 132.217 86.8379 132.289 86.9639 132.379C87.0899 132.469 87.1529 132.595 87.1529 132.757C87.1529 132.865 87.0899 132.946 86.9639 133C86.8559 133.054 86.7119 133.081 86.5319 133.081C86.2079 133.081 85.7939 133.072 85.2899 133.054C84.8039 133.036 84.2999 133.018 83.7779 133C83.2559 132.964 82.7879 132.946 82.3739 132.946C82.0139 132.946 81.6089 132.955 81.1589 132.973C80.7269 132.991 80.2859 133.009 79.8359 133.027C79.4039 133.045 79.0349 133.054 78.7289 133.054C78.5489 133.054 78.3869 133.027 78.2429 132.973C78.1169 132.901 78.0539 132.802 78.0539 132.676C78.0539 132.532 78.1259 132.415 78.2699 132.325C78.4139 132.217 78.5849 132.145 78.7829 132.109C79.4309 132.001 79.8989 131.839 80.1869 131.623C80.4749 131.389 80.5829 131.056 80.5109 130.624C80.4569 130.318 80.3759 129.958 80.2679 129.544C80.1599 129.112 80.0429 128.671 79.9169 128.221C79.8089 127.753 79.6919 127.33 79.5659 126.952C79.5299 126.808 79.4759 126.709 79.4039 126.655C79.3319 126.583 79.1969 126.547 78.9989 126.547H74.1389C74.0129 126.547 73.9139 126.592 73.8419 126.682C73.7699 126.754 73.7159 126.871 73.6799 127.033C73.6079 127.267 73.5179 127.537 73.4099 127.843C73.3199 128.131 73.2209 128.437 73.1129 128.761C73.0229 129.067 72.9329 129.355 72.8429 129.625C72.7709 129.895 72.7169 130.129 72.6809 130.327C72.5909 130.813 72.6719 131.2 72.9239 131.488C73.1939 131.758 73.6529 131.974 74.3009 132.136C74.7869 132.262 75.0299 132.451 75.0299 132.703C75.0299 132.811 74.9669 132.901 74.8409 132.973C74.7329 133.027 74.5709 133.054 74.3549 133.054C73.9409 133.054 73.5089 133.036 73.0589 133C72.6089 132.982 72.1139 132.973 71.5739 132.973C71.0339 132.973 70.5029 133 69.9809 133.054C69.4769 133.108 68.9639 133.135 68.4419 133.135ZM74.8679 125.305H78.6209C78.8729 125.305 78.9989 125.251 78.9989 125.143C78.9989 125.089 78.9899 125.044 78.9719 125.008C78.9719 124.972 78.9629 124.918 78.9449 124.846L77.0549 118.609C76.9829 118.357 76.9199 118.231 76.8659 118.231C76.8299 118.231 76.7669 118.348 76.6769 118.582L74.4089 124.846C74.3729 124.936 74.3549 125.008 74.3549 125.062C74.3549 125.152 74.3999 125.215 74.4899 125.251C74.5979 125.287 74.7239 125.305 74.8679 125.305Z" fill="#CF3535"/>
<path d="M1.073 158.087C0.918333 158.087 0.783 158.058 0.667 158C0.551 157.923 0.493 157.816 0.493 157.681C0.493 157.372 0.696 157.169 1.102 157.072C1.83667 156.917 2.33933 156.724 2.61 156.492C2.9 156.241 3.045 155.796 3.045 155.158V142.166C3.045 141.509 2.929 141.035 2.697 140.745C2.465 140.436 2.001 140.204 1.305 140.049C1.05367 139.991 0.879667 139.914 0.783 139.817C0.686333 139.701 0.638 139.575 0.638 139.44C0.638 139.324 0.696 139.227 0.812 139.15C0.928 139.053 1.08267 139.005 1.276 139.005C1.72067 139.005 2.16533 139.015 2.61 139.034C3.074 139.053 3.51867 139.082 3.944 139.121C4.38867 139.14 4.80433 139.15 5.191 139.15C5.655 139.15 6.061 139.131 6.409 139.092C6.77633 139.034 7.17267 138.986 7.598 138.947C8.04267 138.889 8.57433 138.86 9.193 138.86C11.5517 138.86 13.4173 139.363 14.79 140.368C16.182 141.354 16.878 142.717 16.878 144.457C16.878 145.675 16.617 146.796 16.095 147.821C15.5923 148.846 14.819 149.677 13.775 150.315C12.7503 150.934 11.4453 151.243 9.86 151.243C9.35733 151.243 8.97067 151.166 8.7 151.011C8.44867 150.856 8.323 150.673 8.323 150.46C8.323 150.325 8.381 150.218 8.497 150.141C8.63233 150.044 8.74833 149.996 8.845 149.996C9.05767 149.996 9.24133 150.025 9.396 150.083C9.55067 150.122 9.76333 150.141 10.034 150.141C10.846 150.141 11.455 149.687 11.861 148.778C12.2863 147.869 12.499 146.671 12.499 145.182C12.499 143.403 12.209 142.118 11.629 141.325C11.049 140.532 10.237 140.136 9.193 140.136C8.65167 140.136 8.236 140.262 7.946 140.513C7.67533 140.745 7.54 141.112 7.54 141.615L7.511 155.1C7.511 155.719 7.67533 156.163 8.004 156.434C8.33267 156.685 8.903 156.898 9.715 157.072C9.92767 157.111 10.0823 157.178 10.179 157.275C10.295 157.352 10.353 157.478 10.353 157.652C10.353 157.787 10.3047 157.894 10.208 157.971C10.1113 158.048 9.976 158.087 9.802 158.087C9.37667 158.087 8.88367 158.068 8.323 158.029C7.78167 158.01 7.24033 157.99 6.699 157.971C6.15767 157.952 5.69367 157.942 5.307 157.942C4.901 157.942 4.45633 157.952 3.973 157.971C3.48967 157.99 2.987 158.01 2.465 158.029C1.96233 158.068 1.49833 158.087 1.073 158.087ZM18.6592 158.087C18.5046 158.087 18.3692 158.058 18.2532 158C18.1372 157.923 18.0792 157.816 18.0792 157.681C18.0792 157.372 18.2822 157.169 18.6882 157.072C19.4229 156.917 19.9352 156.724 20.2252 156.492C20.5152 156.241 20.6602 155.806 20.6602 155.187V142.021C20.6602 141.402 20.5346 140.967 20.2832 140.716C20.0319 140.445 19.5196 140.223 18.7462 140.049C18.3402 139.952 18.1372 139.749 18.1372 139.44C18.1372 139.305 18.1952 139.198 18.3112 139.121C18.4272 139.044 18.5626 139.005 18.7172 139.005C19.1619 139.005 19.6259 139.015 20.1092 139.034C20.6119 139.053 21.0952 139.082 21.5592 139.121C22.0426 139.14 22.4872 139.15 22.8932 139.15C23.2799 139.15 23.7149 139.14 24.1982 139.121C24.7009 139.102 25.2036 139.082 25.7062 139.063C26.2282 139.044 26.7019 139.034 27.1272 139.034C27.3012 139.034 27.4366 139.073 27.5332 139.15C27.6299 139.208 27.6782 139.305 27.6782 139.44C27.6782 139.633 27.6202 139.769 27.5042 139.846C27.4076 139.923 27.2529 139.991 27.0402 140.049C26.2669 140.262 25.7546 140.503 25.5032 140.774C25.2519 141.025 25.1262 141.451 25.1262 142.05V155.158C25.1262 155.719 25.2616 156.134 25.5322 156.405C25.8222 156.656 26.3442 156.879 27.0982 157.072C27.2916 157.13 27.4366 157.198 27.5332 157.275C27.6492 157.352 27.7072 157.478 27.7072 157.652C27.7072 157.787 27.6589 157.894 27.5622 157.971C27.4849 158.048 27.3592 158.087 27.1852 158.087C26.7599 158.087 26.2862 158.068 25.7642 158.029C25.2422 158.01 24.7299 157.99 24.2272 157.971C23.7246 157.952 23.2799 157.942 22.8932 157.942C22.4872 157.942 22.0426 157.952 21.5592 157.971C21.0759 157.99 20.5829 158.01 20.0802 158.029C19.5776 158.068 19.1039 158.087 18.6592 158.087ZM43.2877 158.116C43.075 158.116 42.7077 158.106 42.1857 158.087C41.6637 158.087 41.045 158.077 40.3297 158.058C39.6337 158.058 38.87 158.048 38.0387 158.029C37.2267 158.01 36.434 158 35.6607 158C34.9647 158.019 34.259 158.029 33.5437 158.029C32.8477 158.048 32.1517 158.068 31.4557 158.087L29.2227 158.145C29.0487 158.145 28.923 158.019 28.8457 157.768C28.7877 157.517 28.778 157.362 28.8167 157.304C28.9714 157.033 29.1454 156.743 29.3387 156.434C29.532 156.125 29.7254 155.806 29.9187 155.477C30.1314 155.148 30.3247 154.839 30.4987 154.549C31.1947 153.428 31.8907 152.316 32.5867 151.214C33.2827 150.093 33.9787 148.991 34.6747 147.908C35.3707 146.806 36.0667 145.704 36.7627 144.602C37.4587 143.5 38.1547 142.388 38.8507 141.267C38.8894 141.17 38.9184 141.083 38.9377 141.006C38.9764 140.929 38.9957 140.851 38.9957 140.774C38.9957 140.697 38.9667 140.629 38.9087 140.571C38.8507 140.513 38.725 140.484 38.5317 140.484C38.203 140.484 37.8454 140.484 37.4587 140.484C37.072 140.484 36.6854 140.484 36.2987 140.484C35.912 140.484 35.5544 140.484 35.2257 140.484C34.897 140.484 34.5684 140.484 34.2397 140.484C33.447 140.484 32.7317 140.706 32.0937 141.151C31.475 141.576 30.9434 142.176 30.4987 142.949C30.3827 143.162 30.228 143.384 30.0347 143.616C29.8414 143.829 29.5997 143.935 29.3097 143.935C29.155 143.935 29.0487 143.887 28.9907 143.79C28.9327 143.693 28.9037 143.577 28.9037 143.442C28.9037 143.326 28.923 143.2 28.9617 143.065C29.0004 142.91 29.0487 142.775 29.1067 142.659C29.3194 142.195 29.474 141.779 29.5707 141.412C29.6674 141.045 29.7447 140.668 29.8027 140.281C29.8607 139.875 29.909 139.411 29.9477 138.889C29.9864 138.599 30.0444 138.396 30.1217 138.28C30.2184 138.164 30.373 138.106 30.5857 138.106C30.7404 138.106 30.953 138.212 31.2237 138.425C31.5137 138.638 31.794 138.792 32.0647 138.889C32.4127 139.024 32.78 139.111 33.1667 139.15C33.5727 139.169 34.0367 139.179 34.5587 139.179C35.1 139.179 35.6607 139.179 36.2407 139.179C36.8207 139.179 37.4007 139.179 37.9807 139.179C38.3287 139.179 38.7927 139.169 39.3727 139.15C39.9527 139.131 40.5714 139.121 41.2287 139.121C41.9054 139.102 42.5434 139.082 43.1427 139.063C43.742 139.044 44.2157 139.034 44.5637 139.034C44.699 139.034 44.8247 139.131 44.9407 139.324C45.0567 139.517 45.0857 139.653 45.0277 139.73L43.0557 142.862C42.3984 143.887 41.741 144.94 41.0837 146.023C40.4457 147.086 39.8077 148.159 39.1697 149.242C38.5317 150.305 37.8937 151.359 37.2557 152.403C36.637 153.447 36.0184 154.452 35.3997 155.419C35.2064 155.728 35.1097 155.98 35.1097 156.173C35.1097 156.289 35.158 156.376 35.2547 156.434C35.3514 156.492 35.5157 156.531 35.7477 156.55C35.999 156.569 36.347 156.589 36.7917 156.608C37.2557 156.627 37.6327 156.637 37.9227 156.637C38.7347 156.637 39.4404 156.608 40.0397 156.55C40.6584 156.473 41.219 156.337 41.7217 156.144C42.6884 155.777 43.4714 154.839 44.0707 153.331C44.148 153.196 44.2254 153.099 44.3027 153.041C44.3994 152.983 44.5154 152.954 44.6507 152.954C44.902 152.954 45.0277 153.089 45.0277 153.36C45.0277 153.592 44.989 153.882 44.9117 154.23C44.8537 154.559 44.7764 154.926 44.6797 155.332C44.583 155.719 44.4767 156.105 44.3607 156.492C44.264 156.879 44.1674 157.236 44.0707 157.565C44.0127 157.739 43.916 157.874 43.7807 157.971C43.6454 158.068 43.481 158.116 43.2877 158.116ZM60.5631 158.116C60.3504 158.116 59.9831 158.106 59.4611 158.087C58.9391 158.087 58.3204 158.077 57.6051 158.058C56.9091 158.058 56.1454 158.048 55.3141 158.029C54.5021 158.01 53.7094 158 52.9361 158C52.2401 158.019 51.5344 158.029 50.8191 158.029C50.1231 158.048 49.4271 158.068 48.7311 158.087L46.4981 158.145C46.3241 158.145 46.1984 158.019 46.1211 157.768C46.0631 157.517 46.0534 157.362 46.0921 157.304C46.2468 157.033 46.4208 156.743 46.6141 156.434C46.8074 156.125 47.0008 155.806 47.1941 155.477C47.4068 155.148 47.6001 154.839 47.7741 154.549C48.4701 153.428 49.1661 152.316 49.8621 151.214C50.5581 150.093 51.2541 148.991 51.9501 147.908C52.6461 146.806 53.3421 145.704 54.0381 144.602C54.7341 143.5 55.4301 142.388 56.1261 141.267C56.1648 141.17 56.1938 141.083 56.2131 141.006C56.2518 140.929 56.2711 140.851 56.2711 140.774C56.2711 140.697 56.2421 140.629 56.1841 140.571C56.1261 140.513 56.0004 140.484 55.8071 140.484C55.4784 140.484 55.1208 140.484 54.7341 140.484C54.3474 140.484 53.9608 140.484 53.5741 140.484C53.1874 140.484 52.8298 140.484 52.5011 140.484C52.1724 140.484 51.8438 140.484 51.5151 140.484C50.7224 140.484 50.0071 140.706 49.3691 141.151C48.7504 141.576 48.2188 142.176 47.7741 142.949C47.6581 143.162 47.5034 143.384 47.3101 143.616C47.1168 143.829 46.8751 143.935 46.5851 143.935C46.4304 143.935 46.3241 143.887 46.2661 143.79C46.2081 143.693 46.1791 143.577 46.1791 143.442C46.1791 143.326 46.1984 143.2 46.2371 143.065C46.2758 142.91 46.3241 142.775 46.3821 142.659C46.5948 142.195 46.7494 141.779 46.8461 141.412C46.9428 141.045 47.0201 140.668 47.0781 140.281C47.1361 139.875 47.1844 139.411 47.2231 138.889C47.2618 138.599 47.3198 138.396 47.3971 138.28C47.4938 138.164 47.6484 138.106 47.8611 138.106C48.0158 138.106 48.2284 138.212 48.4991 138.425C48.7891 138.638 49.0694 138.792 49.3401 138.889C49.6881 139.024 50.0554 139.111 50.4421 139.15C50.8481 139.169 51.3121 139.179 51.8341 139.179C52.3754 139.179 52.9361 139.179 53.5161 139.179C54.0961 139.179 54.6761 139.179 55.2561 139.179C55.6041 139.179 56.0681 139.169 56.6481 139.15C57.2281 139.131 57.8468 139.121 58.5041 139.121C59.1808 139.102 59.8188 139.082 60.4181 139.063C61.0174 139.044 61.4911 139.034 61.8391 139.034C61.9744 139.034 62.1001 139.131 62.2161 139.324C62.3321 139.517 62.3611 139.653 62.3031 139.73L60.3311 142.862C59.6738 143.887 59.0164 144.94 58.3591 146.023C57.7211 147.086 57.0831 148.159 56.4451 149.242C55.8071 150.305 55.1691 151.359 54.5311 152.403C53.9124 153.447 53.2938 154.452 52.6751 155.419C52.4818 155.728 52.3851 155.98 52.3851 156.173C52.3851 156.289 52.4334 156.376 52.5301 156.434C52.6268 156.492 52.7911 156.531 53.0231 156.55C53.2744 156.569 53.6224 156.589 54.0671 156.608C54.5311 156.627 54.9081 156.637 55.1981 156.637C56.0101 156.637 56.7158 156.608 57.3151 156.55C57.9338 156.473 58.4944 156.337 58.9971 156.144C59.9638 155.777 60.7468 154.839 61.3461 153.331C61.4234 153.196 61.5008 153.099 61.5781 153.041C61.6748 152.983 61.7908 152.954 61.9261 152.954C62.1774 152.954 62.3031 153.089 62.3031 153.36C62.3031 153.592 62.2644 153.882 62.1871 154.23C62.1291 154.559 62.0518 154.926 61.9551 155.332C61.8584 155.719 61.7521 156.105 61.6361 156.492C61.5394 156.879 61.4428 157.236 61.3461 157.565C61.2881 157.739 61.1914 157.874 61.0561 157.971C60.9208 158.068 60.7564 158.116 60.5631 158.116ZM63.3675 158.145C63.1548 158.145 62.9712 158.106 62.8165 158.029C62.6812 157.971 62.6135 157.855 62.6135 157.681C62.6135 157.488 62.6715 157.352 62.7875 157.275C62.9228 157.178 63.0968 157.101 63.3095 157.043C63.8702 156.888 64.3535 156.647 64.7595 156.318C65.1848 155.989 65.5038 155.583 65.7165 155.1C66.1998 154.017 66.6542 152.954 67.0795 151.91C67.5048 150.847 67.9205 149.803 68.3265 148.778C68.7325 147.734 69.1385 146.68 69.5445 145.617C69.9505 144.534 70.3565 143.442 70.7625 142.34C71.0525 141.547 71.2362 140.977 71.3135 140.629C71.3908 140.262 71.4488 140.049 71.4875 139.991C71.8355 139.894 72.1642 139.807 72.4735 139.73C72.7828 139.653 73.1115 139.546 73.4595 139.411C73.8075 139.276 74.0975 139.102 74.3295 138.889C74.5808 138.676 74.7645 138.512 74.8805 138.396C74.9578 138.338 75.0352 138.309 75.1125 138.309C75.1898 138.29 75.2672 138.348 75.3445 138.483C75.4025 138.599 75.4508 138.725 75.4895 138.86C75.5475 138.976 75.5958 139.111 75.6345 139.266C76.0405 140.561 76.4562 141.886 76.8815 143.239C77.3068 144.573 77.7322 145.907 78.1575 147.241C78.6022 148.575 79.0372 149.899 79.4625 151.214C79.8878 152.509 80.3035 153.776 80.7095 155.013C80.8255 155.4 80.9995 155.728 81.2315 155.999C81.4828 156.27 81.7632 156.482 82.0725 156.637C82.3818 156.792 82.7298 156.927 83.1165 157.043C83.3292 157.101 83.4935 157.178 83.6095 157.275C83.7448 157.352 83.8125 157.478 83.8125 157.652C83.8125 157.787 83.7545 157.894 83.6385 157.971C83.5225 158.048 83.3872 158.087 83.2325 158.087C82.8458 158.087 82.3625 158.068 81.7825 158.029C81.2218 158.01 80.6515 157.99 80.0715 157.971C79.4915 157.952 78.9792 157.942 78.5345 157.942C78.1672 157.942 77.7128 157.952 77.1715 157.971C76.6495 157.99 76.1178 158.01 75.5765 158.029C75.0352 158.048 74.5712 158.058 74.1845 158.058C74.0105 158.058 73.8558 158.029 73.7205 157.971C73.6045 157.894 73.5465 157.787 73.5465 157.652C73.5465 157.478 73.6142 157.343 73.7495 157.246C73.8848 157.149 74.0492 157.082 74.2425 157.043C74.9578 156.888 75.4798 156.685 75.8085 156.434C76.1372 156.183 76.2435 155.806 76.1275 155.303C76.0502 154.936 75.9535 154.549 75.8375 154.143C75.7215 153.737 75.6055 153.331 75.4895 152.925C75.3928 152.5 75.2865 152.094 75.1705 151.707C75.1318 151.552 75.0835 151.436 75.0255 151.359C74.9675 151.282 74.8515 151.243 74.6775 151.243H69.5445C69.4092 151.243 69.3028 151.282 69.2255 151.359C69.1482 151.436 69.0902 151.562 69.0515 151.736C68.9742 152.007 68.8872 152.277 68.7905 152.548C68.6938 152.819 68.5972 153.089 68.5005 153.36C68.4232 153.631 68.3458 153.901 68.2685 154.172C68.1912 154.443 68.1138 154.704 68.0365 154.955C67.9012 155.535 67.9592 155.98 68.2105 156.289C68.4618 156.598 69.0032 156.85 69.8345 157.043C70.2985 157.14 70.5305 157.343 70.5305 157.652C70.5305 157.787 70.4725 157.894 70.3565 157.971C70.2598 158.029 70.0955 158.058 69.8635 158.058C69.3028 158.058 68.7808 158.039 68.2975 158C67.8142 157.981 67.2825 157.971 66.7025 157.971C66.1225 157.971 65.5715 158 65.0495 158.058C64.5275 158.116 63.9668 158.145 63.3675 158.145ZM70.3565 149.677H74.1265C74.4165 149.677 74.5615 149.609 74.5615 149.474C74.5615 149.416 74.5518 149.368 74.5325 149.329C74.5325 149.29 74.5228 149.242 74.5035 149.184L72.5605 142.63C72.5025 142.417 72.4445 142.311 72.3865 142.311C72.3478 142.311 72.2802 142.417 72.1835 142.63L69.8925 149.184C69.8538 149.261 69.8345 149.339 69.8345 149.416C69.8345 149.513 69.8828 149.58 69.9795 149.619C70.0955 149.658 70.2212 149.677 70.3565 149.677ZM101.938 158.609C100.952 158.609 100.121 158.483 99.4444 158.232C98.7677 158 98.1877 157.691 97.7044 157.304C97.2404 156.898 96.8247 156.444 96.4574 155.941C96.0321 155.38 95.6164 154.82 95.2104 154.259C94.8237 153.698 94.4371 153.089 94.0504 152.432C93.6637 151.775 93.2577 151.021 92.8324 150.17C92.6391 149.745 92.3781 149.445 92.0494 149.271C91.8754 149.155 91.7014 149.078 91.5274 149.039C91.3534 149 91.1987 148.981 91.0634 148.981C90.9667 148.981 90.8894 149.039 90.8314 149.155C90.7734 149.252 90.7444 149.387 90.7444 149.561V155.1C90.7444 155.699 90.9087 156.134 91.2374 156.405C91.5661 156.676 92.1364 156.898 92.9484 157.072C93.1611 157.111 93.3157 157.178 93.4124 157.275C93.5284 157.352 93.5864 157.478 93.5864 157.652C93.5864 157.787 93.5381 157.894 93.4414 157.971C93.3447 158.048 93.2094 158.087 93.0354 158.087C92.6101 158.087 92.1171 158.068 91.5564 158.029C91.0151 158.01 90.4737 157.99 89.9324 157.971C89.3911 157.952 88.9271 157.942 88.5404 157.942C88.1344 157.942 87.6897 157.952 87.2064 157.971C86.7231 157.99 86.2204 158.01 85.6984 158.029C85.1957 158.068 84.7317 158.087 84.3064 158.087C84.1517 158.087 84.0164 158.058 83.9004 158C83.7844 157.923 83.7264 157.816 83.7264 157.681C83.7264 157.372 83.9294 157.169 84.3354 157.072C85.0701 156.917 85.5727 156.724 85.8434 156.492C86.1334 156.241 86.2784 155.796 86.2784 155.158V142.137C86.2784 141.673 86.2301 141.306 86.1334 141.035C86.0561 140.764 85.8917 140.561 85.6404 140.426C85.3891 140.271 85.0217 140.146 84.5384 140.049C84.2871 139.991 84.1131 139.914 84.0164 139.817C83.9197 139.701 83.8714 139.575 83.8714 139.44C83.8714 139.324 83.9294 139.227 84.0454 139.15C84.1614 139.053 84.3161 139.005 84.5094 139.005C85.1281 139.005 85.6307 139.024 86.0174 139.063C86.4234 139.102 86.8004 139.14 87.1484 139.179C87.5157 139.198 87.9411 139.208 88.4244 139.208C88.8691 139.208 89.2557 139.189 89.5844 139.15C89.9324 139.092 90.3191 139.044 90.7444 139.005C91.1891 138.966 91.7497 138.947 92.4264 138.947C94.6884 138.947 96.4284 139.334 97.6464 140.107C98.8644 140.88 99.4734 142.05 99.4734 143.616C99.4734 144.486 99.2801 145.221 98.8934 145.82C98.5261 146.4 98.0524 146.883 97.4724 147.27C96.9117 147.637 96.3414 147.918 95.7614 148.111C95.6841 148.13 95.6454 148.179 95.6454 148.256C95.6647 148.314 95.6937 148.382 95.7324 148.459C96.3124 149.31 96.8731 150.141 97.4144 150.953C97.9751 151.746 98.5454 152.49 99.1254 153.186C99.7054 153.863 100.305 154.491 100.923 155.071C101.581 155.69 102.248 156.057 102.924 156.173C103.62 156.27 104.307 156.318 104.983 156.318C105.273 156.318 105.418 156.492 105.418 156.84C105.418 157.265 105.264 157.613 104.954 157.884C104.664 158.135 104.258 158.319 103.736 158.435C103.214 158.551 102.615 158.609 101.938 158.609ZM91.8464 148.053C92.5811 148.053 93.1901 147.889 93.6734 147.56C94.1567 147.231 94.5241 146.787 94.7754 146.226C95.0267 145.646 95.1524 144.989 95.1524 144.254C95.1524 143.365 95.0364 142.62 94.8044 142.021C94.5724 141.422 94.2244 140.977 93.7604 140.687C93.2964 140.378 92.6971 140.223 91.9624 140.223C91.5371 140.223 91.2277 140.397 91.0344 140.745C90.8604 141.074 90.7734 141.789 90.7734 142.891C90.7541 143.336 90.7444 143.896 90.7444 144.573C90.7444 145.25 90.7444 146.052 90.7444 146.98C90.7444 147.367 90.8411 147.647 91.0344 147.821C91.2471 147.976 91.5177 148.053 91.8464 148.053ZM106.311 158.087C106.156 158.087 106.021 158.058 105.905 158C105.789 157.923 105.731 157.816 105.731 157.681C105.731 157.372 105.934 157.169 106.34 157.072C107.074 156.917 107.587 156.724 107.877 156.492C108.167 156.241 108.312 155.806 108.312 155.187V142.021C108.312 141.402 108.186 140.967 107.935 140.716C107.683 140.445 107.171 140.223 106.398 140.049C105.992 139.952 105.789 139.749 105.789 139.44C105.789 139.305 105.847 139.198 105.963 139.121C106.079 139.044 106.214 139.005 106.369 139.005C106.813 139.005 107.277 139.015 107.761 139.034C108.263 139.053 108.747 139.082 109.211 139.121C109.694 139.14 110.139 139.15 110.545 139.15C110.931 139.15 111.366 139.14 111.85 139.121C112.352 139.102 112.855 139.082 113.358 139.063C113.88 139.044 114.353 139.034 114.779 139.034C114.953 139.034 115.088 139.073 115.185 139.15C115.281 139.208 115.33 139.305 115.33 139.44C115.33 139.633 115.272 139.769 115.156 139.846C115.059 139.923 114.904 139.991 114.692 140.049C113.918 140.262 113.406 140.503 113.155 140.774C112.903 141.025 112.778 141.451 112.778 142.05V155.158C112.778 155.719 112.913 156.134 113.184 156.405C113.474 156.656 113.996 156.879 114.75 157.072C114.943 157.13 115.088 157.198 115.185 157.275C115.301 157.352 115.359 157.478 115.359 157.652C115.359 157.787 115.31 157.894 115.214 157.971C115.136 158.048 115.011 158.087 114.837 158.087C114.411 158.087 113.938 158.068 113.416 158.029C112.894 158.01 112.381 157.99 111.879 157.971C111.376 157.952 110.931 157.942 110.545 157.942C110.139 157.942 109.694 157.952 109.211 157.971C108.727 157.99 108.234 158.01 107.732 158.029C107.229 158.068 106.755 158.087 106.311 158.087ZM116.468 158.145C116.255 158.145 116.072 158.106 115.917 158.029C115.782 157.971 115.714 157.855 115.714 157.681C115.714 157.488 115.772 157.352 115.888 157.275C116.023 157.178 116.197 157.101 116.41 157.043C116.971 156.888 117.454 156.647 117.86 156.318C118.285 155.989 118.604 155.583 118.817 155.1C119.3 154.017 119.755 152.954 120.18 151.91C120.605 150.847 121.021 149.803 121.427 148.778C121.833 147.734 122.239 146.68 122.645 145.617C123.051 144.534 123.457 143.442 123.863 142.34C124.153 141.547 124.337 140.977 124.414 140.629C124.491 140.262 124.549 140.049 124.588 139.991C124.936 139.894 125.265 139.807 125.574 139.73C125.883 139.653 126.212 139.546 126.56 139.411C126.908 139.276 127.198 139.102 127.43 138.889C127.681 138.676 127.865 138.512 127.981 138.396C128.058 138.338 128.136 138.309 128.213 138.309C128.29 138.29 128.368 138.348 128.445 138.483C128.503 138.599 128.551 138.725 128.59 138.86C128.648 138.976 128.696 139.111 128.735 139.266C129.141 140.561 129.557 141.886 129.982 143.239C130.407 144.573 130.833 145.907 131.258 147.241C131.703 148.575 132.138 149.899 132.563 151.214C132.988 152.509 133.404 153.776 133.81 155.013C133.926 155.4 134.1 155.728 134.332 155.999C134.583 156.27 134.864 156.482 135.173 156.637C135.482 156.792 135.83 156.927 136.217 157.043C136.43 157.101 136.594 157.178 136.71 157.275C136.845 157.352 136.913 157.478 136.913 157.652C136.913 157.787 136.855 157.894 136.739 157.971C136.623 158.048 136.488 158.087 136.333 158.087C135.946 158.087 135.463 158.068 134.883 158.029C134.322 158.01 133.752 157.99 133.172 157.971C132.592 157.952 132.08 157.942 131.635 157.942C131.268 157.942 130.813 157.952 130.272 157.971C129.75 157.99 129.218 158.01 128.677 158.029C128.136 158.048 127.672 158.058 127.285 158.058C127.111 158.058 126.956 158.029 126.821 157.971C126.705 157.894 126.647 157.787 126.647 157.652C126.647 157.478 126.715 157.343 126.85 157.246C126.985 157.149 127.15 157.082 127.343 157.043C128.058 156.888 128.58 156.685 128.909 156.434C129.238 156.183 129.344 155.806 129.228 155.303C129.151 154.936 129.054 154.549 128.938 154.143C128.822 153.737 128.706 153.331 128.59 152.925C128.493 152.5 128.387 152.094 128.271 151.707C128.232 151.552 128.184 151.436 128.126 151.359C128.068 151.282 127.952 151.243 127.778 151.243H122.645C122.51 151.243 122.403 151.282 122.326 151.359C122.249 151.436 122.191 151.562 122.152 151.736C122.075 152.007 121.988 152.277 121.891 152.548C121.794 152.819 121.698 153.089 121.601 153.36C121.524 153.631 121.446 153.901 121.369 154.172C121.292 154.443 121.214 154.704 121.137 154.955C121.002 155.535 121.06 155.98 121.311 156.289C121.562 156.598 122.104 156.85 122.935 157.043C123.399 157.14 123.631 157.343 123.631 157.652C123.631 157.787 123.573 157.894 123.457 157.971C123.36 158.029 123.196 158.058 122.964 158.058C122.403 158.058 121.881 158.039 121.398 158C120.915 157.981 120.383 157.971 119.803 157.971C119.223 157.971 118.672 158 118.15 158.058C117.628 158.116 117.067 158.145 116.468 158.145ZM123.457 149.677H127.227C127.517 149.677 127.662 149.609 127.662 149.474C127.662 149.416 127.652 149.368 127.633 149.329C127.633 149.29 127.623 149.242 127.604 149.184L125.661 142.63C125.603 142.417 125.545 142.311 125.487 142.311C125.448 142.311 125.381 142.417 125.284 142.63L122.993 149.184C122.954 149.261 122.935 149.339 122.935 149.416C122.935 149.513 122.983 149.58 123.08 149.619C123.196 149.658 123.322 149.677 123.457 149.677Z" fill="#CF3535"/>
</svg>
